<?xml version="1.0" encoding="UTF-8" standalone="no"?>
<!-- Created with Inkscape (http://www.inkscape.org/) -->

<svg
   xmlns:dc="http://purl.org/dc/elements/1.1/"
   xmlns:cc="http://creativecommons.org/ns#"
   xmlns:rdf="http://www.w3.org/1999/02/22-rdf-syntax-ns#"
   xmlns:svg="http://www.w3.org/2000/svg"
   xmlns="http://www.w3.org/2000/svg"
   xmlns:sodipodi="http://sodipodi.sourceforge.net/DTD/sodipodi-0.dtd"
   xmlns:inkscape="http://www.inkscape.org/namespaces/inkscape"
   version="1.1"
   id="svg2"
   xml:space="preserve"
   width="736.90314"
   height="644.2757"
   viewBox="0 0 736.90314 644.2757"
   sodipodi:docname="elements_2.svg"
   inkscape:version="0.92.3 (2405546, 2018-03-11)"><metadata
     id="metadata8"><rdf:RDF><cc:Work
         rdf:about=""><dc:format>image/svg+xml</dc:format><dc:type
           rdf:resource="http://purl.org/dc/dcmitype/StillImage" /><dc:title></dc:title></cc:Work></rdf:RDF></metadata><defs
     id="defs6" /><sodipodi:namedview
     pagecolor="#ffffff"
     bordercolor="#666666"
     borderopacity="1"
     objecttolerance="10"
     gridtolerance="10"
     guidetolerance="10"
     inkscape:pageopacity="0"
     inkscape:pageshadow="2"
     inkscape:window-width="1366"
     inkscape:window-height="717"
     id="namedview4"
     showgrid="false"
     inkscape:zoom="0.51803041"
     inkscape:cx="304.92448"
     inkscape:cy="348.18465"
     inkscape:window-x="0"
     inkscape:window-y="26"
     inkscape:window-maximized="1"
     inkscape:current-layer="g12" /><g
     id="g10"
     inkscape:groupmode="layer"
     inkscape:label="elements_2"
     transform="matrix(1.3333333,0,0,1.3333333,0,2.0106893e-5)"><g
       id="g12"><g
         id="g14"><path
           d="m 493.355,287.988 c 0,42.375 -100.265,76.731 -223.945,76.731 -123.68,0 -223.941,-34.356 -223.941,-76.731 0,-42.379 100.261,-76.73 223.941,-76.73 123.68,0 223.945,34.351 223.945,76.73 z"
           style="fill:none;stroke:#000000;stroke-width:0.72750002;stroke-linecap:butt;stroke-linejoin:round;stroke-miterlimit:4;stroke-dasharray:4.365, 4.365;stroke-dashoffset:0;stroke-opacity:0.96715303"
           id="path16"
           inkscape:connector-curvature="0" /></g><g
         id="g18"
         transform="matrix(1,-0.657636,0.760583,0.924121,0,0)"><path
           d="m 203.322,325.91 c 0.001,52.014 -81.569,94.179 -182.192,94.182 -100.621,0 -182.191,-42.167 -182.19,-94.184 -0.001,-52.014 81.571,-94.182 182.192,-94.182 100.621,0 182.19,42.167 182.19,94.184 z"
           style="fill:none;stroke:#800000;stroke-width:0.94265002;stroke-linecap:butt;stroke-linejoin:round;stroke-miterlimit:4;stroke-dasharray:none;stroke-opacity:0.96715303"
           id="path20"
           inkscape:connector-curvature="0" /></g><g
         id="g22"><path
           d="M 148.32,202.734 390.73,376.152"
           style="fill:none;stroke:#000000;stroke-width:0.75;stroke-linecap:butt;stroke-linejoin:miter;stroke-miterlimit:4;stroke-dasharray:none;stroke-opacity:1"
           id="path24"
           inkscape:connector-curvature="0" /></g><g
         id="g26"><path
           d="M 268.918,25.223 V 289.102 L 79.035,467.27"
           style="fill:none;stroke:#ff0000;stroke-width:1.5;stroke-linecap:butt;stroke-linejoin:miter;stroke-miterlimit:4;stroke-dasharray:none;stroke-opacity:1"
           id="path28"
           inkscape:connector-curvature="0" /></g><g
         id="g30"
         transform="rotate(90)"><path
           d="m 31.223,-268.918 3,-3 -10.5,3 10.5,3 z"
           style="fill:#ff0000;fill-opacity:1;fill-rule:evenodd;stroke:#ff0000;stroke-width:0.80000001;stroke-linecap:butt;stroke-linejoin:miter;stroke-miterlimit:4;stroke-dasharray:none;stroke-opacity:1"
           id="path32"
           inkscape:connector-curvature="0" /></g><g
         id="g34"
         transform="matrix(1,-0.938312,0.938312,1,0,0)"><path
           d="m -186.756,287.928 2.189,-2.187 -7.657,2.186 7.657,2.189 z"
           style="fill:#ff0000;fill-opacity:1;fill-rule:evenodd;stroke:#ff0000;stroke-width:0.58339298;stroke-linecap:butt;stroke-linejoin:miter;stroke-miterlimit:4;stroke-dasharray:none;stroke-opacity:1"
           id="path36"
           inkscape:connector-curvature="0" /></g><g
         id="g38"><path
           d="m 268.918,289.102 263.324,31.496"
           style="fill:none;stroke:#ff0000;stroke-width:1.5;stroke-linecap:butt;stroke-linejoin:miter;stroke-miterlimit:4;stroke-dasharray:none;stroke-opacity:1"
           id="path40"
           inkscape:connector-curvature="0" /></g><g
         id="g42"
         transform="matrix(-1,-0.119607,0.119607,-1,0,0)"><path
           d="m -556.583,-253.312 2.979,-2.981 -10.424,2.981 10.423,2.98 z"
           style="fill:#ff0000;fill-opacity:1;fill-rule:evenodd;stroke:#ff0000;stroke-width:0.79433799;stroke-linecap:butt;stroke-linejoin:miter;stroke-miterlimit:4;stroke-dasharray:none;stroke-opacity:1"
           id="path44"
           inkscape:connector-curvature="0" /></g><g
         id="g46"><path
           d="m 247.223,311.531 c 18.519,8.438 34.836,6.114 50.492,0.578"
           style="fill:none;stroke:#000000;stroke-width:0.75;stroke-linecap:butt;stroke-linejoin:miter;stroke-miterlimit:4;stroke-dasharray:none;stroke-opacity:1"
           id="path48"
           inkscape:connector-curvature="0" /></g><g
         id="g50"
         transform="matrix(-1,0.353564,-0.353564,-1,0,0)"><path
           d="m -163.717,-370.994 1.414,-1.414 -4.949,1.414 4.949,1.414 z"
           style="fill:#000000;fill-opacity:1;fill-rule:evenodd;stroke:#000000;stroke-width:0.37712201;stroke-linecap:butt;stroke-linejoin:miter;stroke-miterlimit:4;stroke-dasharray:none;stroke-opacity:1"
           id="path52"
           inkscape:connector-curvature="0" /></g><g
         id="g54"><path
           d="m 301.828,310.438 c 25.856,-17.958 37.567,-36.797 30.637,-60.786"
           style="fill:none;stroke:#000000;stroke-width:0.75;stroke-linecap:butt;stroke-linejoin:miter;stroke-miterlimit:4;stroke-dasharray:none;stroke-opacity:1"
           id="path56"
           inkscape:connector-curvature="0" /></g><g
         id="g58"
         transform="matrix(0.288899,1,-1,0.288899,0,0)"><path
           d="m 321.95,-240.286 1.443,-1.439 -5.046,1.441 5.046,1.438 z"
           style="fill:#000000;fill-opacity:1;fill-rule:evenodd;stroke:#000000;stroke-width:0.384285;stroke-linecap:butt;stroke-linejoin:miter;stroke-miterlimit:4;stroke-dasharray:none;stroke-opacity:1"
           id="path60"
           inkscape:connector-curvature="0" /></g><g
         id="g62"><path
           d="M 41.473,442.562 497.988,134.633"
           style="fill:none;stroke:#000000;stroke-width:0.75;stroke-linecap:butt;stroke-linejoin:miter;stroke-miterlimit:4;stroke-dasharray:none;stroke-opacity:1"
           id="path64"
           inkscape:connector-curvature="0" /></g><g
         id="g66"><path
           d="m 330.484,245.328 c -4.707,-6.293 -15.402,-10.207 -26.933,-8.848"
           style="fill:none;stroke:#000000;stroke-width:0.75;stroke-linecap:butt;stroke-linejoin:miter;stroke-miterlimit:4;stroke-dasharray:none;stroke-opacity:1"
           id="path68"
           inkscape:connector-curvature="0" /></g><g
         id="g70"
         transform="matrix(1,-0.11787,0.11787,1,0,0)"><path
           d="m 274.88,268.529 1.488,-1.493 -5.215,1.491 5.215,1.49 z"
           style="fill:#000000;fill-opacity:1;fill-rule:evenodd;stroke:#000000;stroke-width:0.39725;stroke-linecap:butt;stroke-linejoin:miter;stroke-miterlimit:4;stroke-dasharray:none;stroke-opacity:1"
           id="path72"
           inkscape:connector-curvature="0" /></g><g
         id="g74"><path
           d="m 410.996,346.027 c -0.258,-6.632 -3.316,-12.375 -9.187,-17.222"
           style="fill:none;stroke:#000000;stroke-width:0.75;stroke-linecap:butt;stroke-linejoin:miter;stroke-miterlimit:4;stroke-dasharray:none;stroke-opacity:1"
           id="path76"
           inkscape:connector-curvature="0" /></g><g
         id="g78"
         transform="matrix(1,0.826086,-0.826086,1,0,0)"><path
           d="m 402.587,-1.857 1.158,-1.156 -4.048,1.157 4.049,1.156 z"
           style="fill:#000000;fill-opacity:1;fill-rule:evenodd;stroke:#000000;stroke-width:0.30838501;stroke-linecap:butt;stroke-linejoin:miter;stroke-miterlimit:4;stroke-dasharray:none;stroke-opacity:1"
           id="path80"
           inkscape:connector-curvature="0" /></g><g
         id="g82"><path
           d="M 268.918,289.102 359.492,139.59"
           style="fill:none;stroke:#000000;stroke-width:0.75;stroke-linecap:butt;stroke-linejoin:miter;stroke-miterlimit:4;stroke-dasharray:none;stroke-opacity:1"
           id="path84"
           inkscape:connector-curvature="0" /></g><path
         d="m 362.816,139.637 c 0,2.074 -1.679,3.75 -3.75,3.75 -2.07,0 -3.75,-1.676 -3.75,-3.75 0,-2.071 1.68,-3.75 3.75,-3.75 2.071,0 3.75,1.679 3.75,3.75 z"
         style="fill:#000000;fill-opacity:0.99270097;fill-rule:nonzero;stroke:none"
         id="path86"
         inkscape:connector-curvature="0" /><path
         d="m 20.141,229.781 h -0.453 c -0.454,2.766 -0.86,4.078 -3.954,4.078 h -2.39 c -0.844,0 -0.891,-0.125 -0.891,-0.718 v -4.797 h 1.625 c 1.75,0 1.938,0.562 1.938,2.094 h 0.453 v -4.766 h -0.453 c 0,1.547 -0.188,2.109 -1.938,2.109 h -1.625 v -4.328 c 0,-0.594 0.047,-0.719 0.891,-0.719 h 2.312 c 2.766,0 3.25,1 3.532,3.5 h 0.453 l -0.5,-4.046 H 9 v 0.546 h 0.438 c 1.374,0 1.421,0.204 1.421,0.86 v 9.422 c 0,0.656 -0.047,0.843 -1.421,0.843 H 9 v 0.563 h 10.391 z"
         style="fill:#000000;fill-opacity:1;fill-rule:nonzero;stroke:none"
         id="path88"
         inkscape:connector-curvature="0" /><path
         d="m 28.145,232.281 c 0,-0.187 -0.172,-0.187 -0.235,-0.187 -0.156,0 -0.203,0.078 -0.234,0.187 -0.516,1.672 -1.688,1.891 -2.36,1.891 -0.953,0 -2.531,-0.781 -2.531,-3.672 0,-2.938 1.469,-3.688 2.422,-3.688 0.172,0 1.297,0.016 1.938,0.657 -0.75,0.062 -0.86,0.593 -0.86,0.828 0,0.469 0.328,0.828 0.828,0.828 0.469,0 0.828,-0.297 0.828,-0.844 0,-1.219 -1.359,-1.922 -2.75,-1.922 -2.25,0 -3.906,1.938 -3.906,4.172 0,2.313 1.781,4.094 3.875,4.094 2.406,0 2.985,-2.172 2.985,-2.344 z"
         style="fill:#000000;fill-opacity:1;fill-rule:nonzero;stroke:none"
         id="path90"
         inkscape:connector-curvature="0" /><path
         d="m 33.25,234.422 v -0.563 c -1.203,0 -1.406,0 -1.406,-0.812 v -11.109 l -2.594,0.187 v 0.563 c 1.266,0 1.406,0.124 1.406,1 v 9.359 c 0,0.812 -0.203,0.812 -1.406,0.812 v 0.563 l 2,-0.047 z"
         style="fill:#000000;fill-opacity:1;fill-rule:nonzero;stroke:none"
         id="path92"
         inkscape:connector-curvature="0" /><path
         d="m 38.102,234.422 v -0.563 c -1.188,0 -1.266,-0.078 -1.266,-0.781 v -6.609 l -2.516,0.187 v 0.563 c 1.172,0 1.328,0.109 1.328,1 v 4.828 c 0,0.812 -0.203,0.812 -1.406,0.812 v 0.563 l 1.985,-0.047 c 0.625,0 1.25,0.031 1.875,0.047 z m -1,-10.875 c 0,-0.485 -0.407,-0.953 -0.954,-0.953 -0.609,0 -0.968,0.5 -0.968,0.953 0,0.484 0.406,0.953 0.953,0.953 0.609,0 0.969,-0.5 0.969,-0.953 z"
         style="fill:#000000;fill-opacity:1;fill-rule:nonzero;stroke:none"
         id="path94"
         inkscape:connector-curvature="0" /><path
         d="m 48.016,230.531 c 0,-2.281 -1.75,-4.062 -3.766,-4.062 -1.391,0 -2.156,0.797 -2.516,1.187 v -1.187 l -2.593,0.187 v 0.563 c 1.281,0 1.406,0.109 1.406,0.906 v 8.422 c 0,0.812 -0.203,0.812 -1.406,0.812 v 0.547 l 2.015,-0.047 2.032,0.047 v -0.547 c -1.204,0 -1.391,0 -1.391,-0.812 v -3.188 c 0.078,0.282 0.844,1.266 2.203,1.266 2.141,0 4.016,-1.766 4.016,-4.094 z m -1.485,0 c 0,2.188 -1.265,3.688 -2.593,3.688 -0.719,0 -1.407,-0.36 -1.891,-1.094 -0.25,-0.375 -0.25,-0.391 -0.25,-0.75 v -4.016 c 0.515,-0.921 1.391,-1.437 2.312,-1.437 1.313,0 2.422,1.578 2.422,3.609 z"
         style="fill:#000000;fill-opacity:1;fill-rule:nonzero;stroke:none"
         id="path96"
         inkscape:connector-curvature="0" /><path
         d="m 54.629,232.188 v -1.032 h -0.438 v 1 c 0,1.328 -0.546,2.016 -1.218,2.016 -1.203,0 -1.203,-1.641 -1.203,-1.953 v -5 h 2.578 v -0.563 H 51.77 v -3.297 h -0.454 c -0.015,1.469 -0.546,3.391 -2.312,3.469 v 0.391 h 1.531 v 4.969 c 0,2.218 1.672,2.437 2.313,2.437 1.281,0 1.781,-1.281 1.781,-2.437 z"
         style="fill:#000000;fill-opacity:1;fill-rule:nonzero;stroke:none"
         id="path98"
         inkscape:connector-curvature="0" /><path
         d="m 60.109,234.422 v -0.563 c -1.187,0 -1.265,-0.078 -1.265,-0.781 v -6.609 l -2.516,0.187 v 0.563 c 1.172,0 1.328,0.109 1.328,1 v 4.828 c 0,0.812 -0.203,0.812 -1.406,0.812 v 0.563 l 1.984,-0.047 c 0.625,0 1.25,0.031 1.875,0.047 z m -1,-10.875 c 0,-0.485 -0.406,-0.953 -0.953,-0.953 -0.609,0 -0.968,0.5 -0.968,0.953 0,0.484 0.406,0.953 0.953,0.953 0.609,0 0.968,-0.5 0.968,-0.953 z"
         style="fill:#000000;fill-opacity:1;fill-rule:nonzero;stroke:none"
         id="path100"
         inkscape:connector-curvature="0" /><path
         d="m 68.117,232.281 c 0,-0.187 -0.172,-0.187 -0.234,-0.187 -0.156,0 -0.203,0.078 -0.235,0.187 -0.515,1.672 -1.687,1.891 -2.359,1.891 -0.953,0 -2.531,-0.781 -2.531,-3.672 0,-2.938 1.469,-3.688 2.422,-3.688 0.172,0 1.297,0.016 1.937,0.657 -0.75,0.062 -0.859,0.593 -0.859,0.828 0,0.469 0.328,0.828 0.828,0.828 0.469,0 0.828,-0.297 0.828,-0.844 0,-1.219 -1.359,-1.922 -2.75,-1.922 -2.25,0 -3.906,1.938 -3.906,4.172 0,2.313 1.781,4.094 3.875,4.094 2.406,0 2.984,-2.172 2.984,-2.344 z"
         style="fill:#000000;fill-opacity:1;fill-rule:nonzero;stroke:none"
         id="path102"
         inkscape:connector-curvature="0" /><path
         d="m 17.871,246.383 c 0,-2.281 -1.75,-4.063 -3.766,-4.063 -1.39,0 -2.156,0.797 -2.515,1.188 v -1.188 l -2.594,0.188 v 0.562 c 1.281,0 1.406,0.11 1.406,0.907 v 8.421 c 0,0.813 -0.203,0.813 -1.406,0.813 v 0.547 l 2.016,-0.047 2.031,0.047 v -0.547 c -1.203,0 -1.391,0 -1.391,-0.813 v -3.187 c 0.078,0.281 0.844,1.266 2.203,1.266 2.141,0 4.016,-1.766 4.016,-4.094 z m -1.484,0 c 0,2.187 -1.266,3.687 -2.594,3.687 -0.719,0 -1.406,-0.359 -1.891,-1.093 -0.25,-0.375 -0.25,-0.391 -0.25,-0.75 v -4.016 c 0.516,-0.922 1.391,-1.438 2.313,-1.438 1.312,0 2.422,1.579 2.422,3.61 z"
         style="fill:#000000;fill-opacity:1;fill-rule:nonzero;stroke:none"
         id="path104"
         inkscape:connector-curvature="0" /><path
         d="m 23.109,250.273 v -0.562 c -1.203,0 -1.406,0 -1.406,-0.813 v -11.109 l -2.594,0.188 v 0.562 c 1.266,0 1.407,0.125 1.407,1 v 9.359 c 0,0.813 -0.204,0.813 -1.407,0.813 v 0.562 l 2,-0.046 z"
         style="fill:#000000;fill-opacity:1;fill-rule:nonzero;stroke:none"
         id="path106"
         inkscape:connector-curvature="0" /><path
         d="m 32.195,248.664 v -1 h -0.437 v 1 c 0,1.047 -0.453,1.156 -0.656,1.156 -0.594,0 -0.657,-0.812 -0.657,-0.89 v -3.61 c 0,-0.75 0,-1.453 -0.656,-2.125 -0.703,-0.703 -1.594,-0.984 -2.469,-0.984 -1.468,0 -2.718,0.844 -2.718,2.031 0,0.547 0.359,0.844 0.828,0.844 0.515,0 0.828,-0.359 0.828,-0.828 0,-0.219 -0.094,-0.813 -0.906,-0.828 0.484,-0.625 1.359,-0.828 1.937,-0.828 0.875,0 1.906,0.703 1.906,2.312 v 0.656 c -0.922,0.063 -2.172,0.11 -3.312,0.657 -1.344,0.609 -1.797,1.546 -1.797,2.343 0,1.453 1.75,1.907 2.875,1.907 1.187,0 2.016,-0.719 2.359,-1.579 0.078,0.735 0.563,1.485 1.407,1.485 0.375,0 1.468,-0.25 1.468,-1.719 z m -3,-0.906 c 0,1.703 -1.297,2.312 -2.109,2.312 -0.875,0 -1.609,-0.625 -1.609,-1.531 0,-0.984 0.75,-2.484 3.718,-2.578 z"
         style="fill:#000000;fill-opacity:1;fill-rule:nonzero;stroke:none"
         id="path108"
         inkscape:connector-curvature="0" /><path
         d="m 42.133,250.273 v -0.562 c -0.938,0 -1.375,0 -1.406,-0.531 v -3.438 c 0,-1.547 0,-2.109 -0.547,-2.765 -0.25,-0.297 -0.844,-0.657 -1.891,-0.657 -1.312,0 -2.156,0.766 -2.672,1.891 v -1.891 l -2.531,0.188 v 0.562 c 1.266,0 1.406,0.125 1.406,1.016 v 4.812 c 0,0.813 -0.203,0.813 -1.406,0.813 v 0.562 l 2.031,-0.046 2.016,0.046 v -0.562 c -1.203,0 -1.406,0 -1.406,-0.813 v -3.312 c 0,-1.859 1.281,-2.875 2.437,-2.875 1.125,0 1.328,0.969 1.328,2 v 4.187 c 0,0.813 -0.203,0.813 -1.406,0.813 v 0.562 l 2.031,-0.046 z"
         style="fill:#000000;fill-opacity:1;fill-rule:nonzero;stroke:none"
         id="path110"
         inkscape:connector-curvature="0" /><path
         d="m 49.996,248.133 c 0,-0.188 -0.141,-0.219 -0.234,-0.219 -0.157,0 -0.203,0.109 -0.235,0.25 -0.625,1.859 -2.25,1.859 -2.422,1.859 -0.906,0 -1.625,-0.546 -2.046,-1.203 -0.532,-0.875 -0.532,-2.062 -0.532,-2.703 h 5.016 c 0.406,0 0.453,0 0.453,-0.375 0,-1.781 -0.969,-3.531 -3.219,-3.531 -2.093,0 -3.75,1.859 -3.75,4.109 0,2.407 1.891,4.157 3.969,4.157 2.188,0 3,-2 3,-2.344 z m -1.187,-2.391 h -4.266 c 0.109,-2.687 1.625,-3.14 2.234,-3.14 1.86,0 2.032,2.437 2.032,3.14 z"
         style="fill:#000000;fill-opacity:1;fill-rule:nonzero;stroke:none"
         id="path112"
         inkscape:connector-curvature="0" /><path
         d="m 549.855,326.953 2.735,-11.031 c 0.031,-0.156 0.094,-0.297 0.094,-0.391 0,-0.297 -0.235,-0.719 -0.797,-0.719 -0.828,0 -1.032,0.813 -1.078,1.032 l -2.047,8.234 c -0.203,0.813 -1.313,2.484 -2.969,2.484 -1.266,0 -1.516,-1.234 -1.516,-2.156 0,-1.703 0.922,-4.218 1.625,-6.125 0.219,-0.593 0.36,-0.984 0.36,-1.515 0,-1.407 -0.922,-2.266 -2.125,-2.266 -2.61,0 -3.578,4.141 -3.578,4.312 0,0.282 0.281,0.282 0.421,0.282 0.36,0 0.391,-0.063 0.5,-0.453 0.219,-0.86 0.985,-3.532 2.61,-3.532 0.297,0 0.609,0.094 0.609,0.813 0,0.672 -0.281,1.437 -0.672,2.531 -0.734,1.953 -1.453,4.031 -1.453,5.485 0,2.437 1.625,3.25 3.125,3.25 1.297,0 2.156,-0.672 2.531,-1.047 -1.062,4.625 -3.14,5.859 -4.546,5.859 -1.344,0 -1.735,-1.062 -1.735,-1.203 0,0 0.031,-0.063 0.235,-0.078 0.859,-0.141 1.203,-0.907 1.203,-1.36 0,-0.578 -0.453,-0.89 -0.953,-0.89 -0.344,0 -1.438,0.172 -1.438,1.734 0,1.453 1.156,2.406 2.688,2.406 2.921,0 5.468,-2.875 6.171,-5.656 z"
         style="fill:#ff0000;fill-opacity:1;fill-rule:nonzero;stroke:none"
         id="path114"
         inkscape:connector-curvature="0" /><path
         d="m 273.898,8.375 c 0,-0.281 -0.343,-0.281 -0.421,-0.281 -0.329,0 -0.36,0.078 -0.469,0.437 -0.516,1.407 -1.86,2.36 -3.063,2.36 -0.562,0 -1,-0.203 -1.562,-0.453 -0.844,-0.36 -1.172,-0.469 -1.735,-0.469 -0.14,0 -0.359,0 -0.5,0.031 0.188,-0.234 0.782,-0.922 1.563,-1.719 l 4.062,-4 c 1.641,-1.625 2.985,-3.75 2.985,-4 C 274.758,0 274.539,0 274.367,0 c -0.328,0 -0.359,0.031 -0.531,0.359 -0.922,1.594 -1.281,1.735 -1.734,1.735 -0.5,0 -0.782,-0.282 -1.313,-1 C 270.461,0.641 269.977,0 269.086,0 c -2.078,0 -3.281,2.625 -3.281,3.188 0,0.25 0.203,0.312 0.422,0.312 0.328,0 0.359,-0.062 0.5,-0.391 0.234,-0.625 1.031,-1.312 2.078,-1.312 0.562,0 1.062,0.219 1.672,0.5 0.921,0.422 1.234,0.422 1.656,0.422 -0.422,0.469 -0.672,0.781 -1.125,1.234 l -4.594,4.563 c -1.562,1.531 -2.906,3.609 -2.906,3.89 0,0.282 0.25,0.282 0.422,0.282 0.312,0 0.328,-0.063 0.453,-0.25 0.39,-0.594 1.14,-1.86 2.203,-1.86 0.625,0 0.844,0.313 1.344,1.016 0.453,0.562 0.875,1.094 1.734,1.094 2.719,0 4.234,-3.641 4.234,-4.313 z"
         style="fill:#ff0000;fill-opacity:1;fill-rule:nonzero;stroke:none"
         id="path116"
         inkscape:connector-curvature="0" /><path
         d="m 72.535,478.898 c 0,-0.281 -0.219,-0.281 -0.406,-0.281 -0.344,0 -0.375,0.031 -0.516,0.469 -0.75,2.406 -2.156,3.5 -3.328,3.5 -0.562,0 -1.312,-0.328 -1.312,-1.781 0,-0.672 0.312,-1.875 0.531,-2.828 l 0.953,-3.844 c 0.391,-1.453 1.141,-3 2.469,-3 0.078,0 0.781,0 1.219,0.39 -1.11,0.282 -1.11,1.344 -1.11,1.344 0,0.375 0.25,0.906 0.969,0.906 0.516,0 1.375,-0.39 1.375,-1.484 0,-1.437 -1.625,-1.766 -2.438,-1.766 -1.531,0 -2.453,1.375 -2.734,1.907 -0.625,-1.688 -1.984,-1.907 -2.687,-1.907 -2.797,0 -4.313,3.672 -4.313,4.313 0,0.281 0.281,0.281 0.422,0.281 0.359,0 0.359,-0.031 0.5,-0.484 0.75,-2.406 2.203,-3.5 3.328,-3.5 0.813,0 1.344,0.656 1.344,1.765 0,0.672 -0.328,2.047 -0.578,3.079 l -0.657,2.546 c -0.437,1.829 -1.031,4.063 -2.718,4.063 -0.078,0 -0.75,0 -1.219,-0.391 0.828,-0.218 1.094,-0.922 1.094,-1.343 0,-0.719 -0.594,-0.891 -0.953,-0.891 -0.704,0 -1.407,0.578 -1.407,1.516 0,1.078 1.172,1.734 2.469,1.734 1.344,0 2.266,-1.063 2.734,-1.906 0.563,1.593 1.938,1.906 2.672,1.906 2.875,0 4.297,-3.75 4.297,-4.313 z"
         style="fill:#ff0000;fill-opacity:1;fill-rule:nonzero;stroke:none"
         id="path118"
         inkscape:connector-curvature="0" /><path
         d="m 418.176,337.098 v -0.563 h -0.469 c -1.422,0 -1.484,-0.187 -1.484,-0.844 v -9.484 c 0,-0.641 0.062,-0.844 1.484,-0.844 h 0.469 v -0.562 c -0.641,0.062 -2.063,0.062 -2.735,0.062 -0.703,0 -2.125,0 -2.765,-0.062 v 0.562 h 0.469 c 1.421,0 1.484,0.203 1.484,0.844 v 9.484 c 0,0.657 -0.063,0.844 -1.484,0.844 h -0.469 v 0.563 c 0.64,-0.047 2.062,-0.047 2.734,-0.047 0.703,0 2.125,0 2.766,0.047 z"
         style="fill:#000000;fill-opacity:1;fill-rule:nonzero;stroke:none"
         id="path120"
         inkscape:connector-curvature="0" /><path
         d="m 276.816,329.965 h -0.453 c -0.093,0.469 -0.156,0.89 -0.328,1.312 -0.078,0.297 -0.14,0.438 -1.187,0.438 h -1.438 c 0.235,-1 0.797,-1.875 1.61,-3.063 0.843,-1.281 1.578,-2.515 1.578,-3.937 0,-2.5 -2.422,-4.516 -5.469,-4.516 -3.094,0 -5.484,2.047 -5.484,4.516 0,1.422 0.734,2.656 1.578,3.937 0.797,1.188 1.359,2.063 1.593,3.063 h -1.437 c -1.047,0 -1.094,-0.141 -1.188,-0.406 -0.14,-0.422 -0.234,-0.891 -0.328,-1.344 h -0.437 l 0.594,2.922 h 2.875 c 0.39,0 0.453,0 0.453,-0.375 0,-1.266 -0.563,-2.844 -0.969,-4 -0.391,-1.047 -0.891,-2.469 -0.891,-3.813 0,-2.875 1.985,-4.109 3.625,-4.109 1.719,0 3.625,1.297 3.625,4.109 0,1.344 -0.484,2.719 -1,4.188 -0.265,0.765 -0.843,2.375 -0.843,3.625 0,0.375 0.046,0.375 0.468,0.375 h 2.86 z"
         style="fill:#000000;fill-opacity:1;fill-rule:nonzero;stroke:none"
         id="path122"
         inkscape:connector-curvature="0" /><path
         d="m 107.18,450.258 51.711,-48.168 10.535,11.308 -51.715,48.168 z"
         style="fill:#ffffff;fill-opacity:0.99270097;fill-rule:nonzero;stroke:none"
         id="path124"
         inkscape:connector-curvature="0" /><path
         d="m 123.344,448.781 c -0.125,-0.14 -0.25,-0.062 -0.313,0 -0.109,0.11 -0.078,0.219 0,0.344 0.797,1.781 -0.406,2.875 -0.531,3 -0.672,0.609 -1.562,0.687 -2.328,0.5 -0.984,-0.297 -1.781,-1.172 -2.219,-1.641 l 3.703,-3.39 c 0.297,-0.266 0.328,-0.297 0.078,-0.578 -1.203,-1.313 -3.109,-1.938 -4.765,-0.422 -1.531,1.422 -1.5,3.906 0.031,5.562 1.625,1.766 4.203,1.797 5.734,0.391 1.61,-1.485 0.844,-3.516 0.61,-3.766 z m -2.485,-0.969 -3.14,2.891 c -1.735,-2.047 -0.922,-3.422 -0.485,-3.828 1.375,-1.25 3.141,0.422 3.625,0.937 z"
         style="fill:#000000;fill-opacity:1;fill-rule:nonzero;stroke:none"
         id="path126"
         inkscape:connector-curvature="0" /><path
         d="m 134.52,446.148 -0.375,-0.406 c -0.891,0.828 -1.032,0.953 -1.579,0.36 l -6.812,-7.422 -0.297,0.265 0.609,1.672 c -0.531,-0.219 -1.828,-0.547 -2.875,0.422 -1.546,1.422 -1.765,4 -0.187,5.703 1.531,1.656 4.047,1.828 5.594,0.406 0.922,-0.843 0.922,-1.921 0.89,-2.578 l 2.172,2.375 c 0.547,0.594 0.391,0.735 -0.5,1.547 l 0.375,0.406 1.453,-1.406 z m -5.922,-2.609 c 0.39,0.438 0.468,1.016 0.484,1.609 0,0.344 -0.094,1.079 -0.719,1.657 -0.968,0.875 -2.859,0.453 -4.265,-1.078 -1.438,-1.579 -1.532,-3.516 -0.532,-4.438 1.047,-0.969 2.672,-0.312 3.313,0.391 z"
         style="fill:#000000;fill-opacity:1;fill-rule:nonzero;stroke:none"
         id="path128"
         inkscape:connector-curvature="0" /><path
         d="m 139.258,437.074 -0.375,-0.422 c -0.922,0.844 -1.141,0.875 -1.735,0.219 l -4.312,-4.703 -1.813,1.937 0.375,0.407 c 0.938,-0.86 1.125,-0.86 1.719,-0.203 l 2.172,2.359 c 1.047,1.156 1.25,2.625 0.281,3.516 -1.125,1.015 -1.734,0.468 -2.375,-0.235 l -4.031,-4.39 -1.828,1.921 0.375,0.407 c 1.047,-0.953 1.094,-0.907 2.172,0.281 l 1.828,1.984 c 0.953,1.032 2.062,2.25 4.062,0.407 0.75,-0.688 0.969,-1.61 0.594,-2.766 l 1.11,1.203 z"
         style="fill:#000000;fill-opacity:1;fill-rule:nonzero;stroke:none"
         id="path130"
         inkscape:connector-curvature="0" /><path
         d="m 142.828,433.797 -0.375,-0.422 c -0.875,0.813 -1,0.813 -1.469,0.297 l -4.468,-4.875 -1.719,1.844 0.375,0.406 c 0.859,-0.797 1.047,-0.813 1.64,-0.156 l 3.266,3.547 c 0.563,0.593 0.422,0.734 -0.469,1.546 l 0.375,0.422 1.438,-1.375 c 0.453,-0.422 0.922,-0.828 1.406,-1.234 z m -8.094,-7.328 c -0.328,-0.344 -0.937,-0.438 -1.343,-0.063 -0.453,0.406 -0.375,1.032 -0.079,1.36 0.329,0.359 0.938,0.422 1.344,0.046 0.453,-0.406 0.391,-1 0.078,-1.343 z"
         style="fill:#000000;fill-opacity:1;fill-rule:nonzero;stroke:none"
         id="path132"
         inkscape:connector-curvature="0" /><path
         d="m 150.316,426.918 -0.375,-0.422 c -0.687,0.641 -1.015,0.938 -1.406,0.563 l -2.328,-2.532 c -1.047,-1.14 -1.422,-1.547 -2.266,-1.656 -0.39,-0.047 -1.062,0.078 -1.828,0.797 -0.968,0.891 -1.078,2.016 -0.687,3.187 l -1.281,-1.39 -1.75,1.859 0.375,0.406 c 0.937,-0.859 1.14,-0.859 1.734,-0.203 l 3.25,3.547 c 0.562,0.594 0.406,0.735 -0.484,1.547 l 0.375,0.422 1.468,-1.406 1.516,-1.328 -0.375,-0.422 c -0.891,0.812 -1.031,0.953 -1.594,0.359 l -2.234,-2.437 c -1.25,-1.375 -1,-2.985 -0.141,-3.766 0.828,-0.766 1.625,-0.188 2.313,0.578 l 2.828,3.078 c 0.562,0.594 0.422,0.719 -0.469,1.547 l 0.375,0.422 1.469,-1.406 z"
         style="fill:#000000;fill-opacity:1;fill-rule:nonzero;stroke:none"
         id="path134"
         inkscape:connector-curvature="0" /><path
         d="m 154.242,418.078 c -1.547,-1.687 -4.187,-1.875 -5.781,-0.406 -1.656,1.531 -1.609,4.14 -0.094,5.797 1.578,1.719 4.125,1.734 5.672,0.312 1.609,-1.469 1.75,-4.015 0.203,-5.703 z m -1.203,0.906 c 0.438,0.485 1.094,1.204 1.359,2.063 0.235,0.844 0.016,1.765 -0.656,2.375 -0.578,0.531 -1.406,0.797 -2.312,0.516 -0.875,-0.297 -1.625,-1.11 -2.063,-1.594 -0.484,-0.516 -1.14,-1.219 -1.344,-2.11 -0.203,-0.922 0.172,-1.781 0.688,-2.265 0.594,-0.547 1.422,-0.75 2.297,-0.5 0.859,0.25 1.562,1.015 2.031,1.515 z"
         style="fill:#000000;fill-opacity:1;fill-rule:nonzero;stroke:none"
         id="path136"
         inkscape:connector-curvature="0" /><path
         d="m 163.695,414.621 -0.375,-0.422 c -0.703,0.656 -0.984,0.86 -1.625,0.766 l -3.875,-0.688 c -0.062,-0.843 -0.172,-1.968 -0.156,-2.609 -0.031,-0.844 0.328,-1.563 0.938,-2.141 l -0.375,-0.406 c -0.313,0.344 -0.704,0.734 -1.047,1.047 -0.391,0.359 -1.125,0.969 -1.313,1.109 l 0.375,0.407 c 0.297,-0.204 0.563,-0.141 0.766,0.078 0.187,0.203 0.219,0.5 0.234,0.64 l 0.11,1.797 -2.266,-0.39 c -0.234,-0.032 -0.25,-0.047 -0.328,-0.125 -0.188,-0.204 -0.11,-0.516 0.14,-0.766 l -0.375,-0.406 -1.375,1.359 c -0.281,0.25 -0.906,0.813 -1.296,1.094 l 0.375,0.406 c 0.921,-0.844 0.937,-0.828 2.312,-0.625 l 2.875,0.516 c 0.094,1.39 0.125,1.422 0.203,2.734 0.063,1.344 -0.687,2.078 -0.969,2.344 l 0.375,0.422 c 0.329,-0.344 0.719,-0.719 1.063,-1.047 l 1.297,-1.125 -0.375,-0.422 c -0.313,0.234 -0.594,0.156 -0.766,-0.031 -0.281,-0.297 -0.281,-1.094 -0.344,-2.797 l 2.219,0.39 c 0.235,0.063 0.61,0.125 0.672,0.188 0.109,0.125 0.188,0.437 -0.172,0.766 l 0.375,0.421 1.406,-1.343 c 0.36,-0.328 0.891,-0.797 1.297,-1.141 z"
         style="fill:#000000;fill-opacity:1;fill-rule:nonzero;stroke:none"
         id="path138"
         inkscape:connector-curvature="0" /><path
         d="m 476.27,165.832 c 0,-1.75 -1.782,-3.344 -4.25,-3.344 h -6.36 v 0.563 h 0.438 c 1.39,0 1.422,0.203 1.422,0.844 v 9.484 c 0,0.656 -0.032,0.844 -1.422,0.844 h -0.438 v 0.562 c 0.641,-0.047 1.969,-0.047 2.656,-0.047 0.672,0 2.032,0 2.657,0.047 v -0.562 h -0.422 c -1.391,0 -1.422,-0.188 -1.422,-0.844 v -4.281 h 3.031 c 2.156,0 4.11,-1.453 4.11,-3.266 z m -1.86,0 c 0,0.859 0,2.797 -2.859,2.797 h -2.485 v -4.859 c 0,-0.594 0.032,-0.719 0.875,-0.719 h 1.61 c 2.859,0 2.859,1.906 2.859,2.781 z"
         style="fill:#000000;fill-opacity:1;fill-rule:nonzero;stroke:none"
         id="path140"
         inkscape:connector-curvature="0" /><path
         d="m 484.281,172.645 c 0,-0.188 -0.14,-0.219 -0.234,-0.219 -0.156,0 -0.203,0.109 -0.235,0.25 -0.624,1.859 -2.25,1.859 -2.421,1.859 -0.907,0 -1.625,-0.547 -2.047,-1.203 -0.532,-0.875 -0.532,-2.062 -0.532,-2.703 h 5.016 c 0.406,0 0.453,0 0.453,-0.375 0,-1.781 -0.969,-3.531 -3.219,-3.531 -2.093,0 -3.75,1.859 -3.75,4.109 0,2.406 1.891,4.156 3.969,4.156 2.188,0 3,-2 3,-2.343 z m -1.187,-2.391 h -4.266 c 0.11,-2.688 1.625,-3.141 2.234,-3.141 1.86,0 2.032,2.438 2.032,3.141 z"
         style="fill:#000000;fill-opacity:1;fill-rule:nonzero;stroke:none"
         id="path142"
         inkscape:connector-curvature="0" /><path
         d="m 491.34,167.926 c 0,-0.578 -0.547,-1.094 -1.328,-1.094 -1.313,0 -1.953,1.203 -2.219,1.984 v -1.984 l -2.5,0.188 v 0.562 c 1.266,0 1.406,0.125 1.406,1.016 v 4.812 c 0,0.813 -0.203,0.813 -1.406,0.813 v 0.562 l 2.062,-0.047 c 0.719,0 1.563,0 2.282,0.047 v -0.562 h -0.375 c -1.344,0 -1.375,-0.188 -1.375,-0.844 v -2.766 c 0,-1.781 0.765,-3.39 2.125,-3.39 0.125,0 0.156,0 0.203,0.015 -0.063,0.016 -0.422,0.235 -0.422,0.703 0,0.5 0.375,0.782 0.781,0.782 0.328,0 0.766,-0.219 0.766,-0.797 z"
         style="fill:#000000;fill-opacity:1;fill-rule:nonzero;stroke:none"
         id="path144"
         inkscape:connector-curvature="0" /><path
         d="m 496.312,174.785 v -0.562 c -1.187,0 -1.265,-0.078 -1.265,-0.782 v -6.609 l -2.516,0.188 v 0.562 c 1.172,0 1.328,0.109 1.328,1 v 4.828 c 0,0.813 -0.203,0.813 -1.406,0.813 v 0.562 l 1.985,-0.047 c 0.624,0 1.25,0.032 1.874,0.047 z m -1,-10.875 c 0,-0.484 -0.406,-0.953 -0.953,-0.953 -0.609,0 -0.968,0.5 -0.968,0.953 0,0.485 0.406,0.953 0.953,0.953 0.609,0 0.968,-0.5 0.968,-0.953 z"
         style="fill:#000000;fill-opacity:1;fill-rule:nonzero;stroke:none"
         id="path146"
         inkscape:connector-curvature="0" /><path
         d="m 505.539,173.176 v -1 h -0.437 v 1 c 0,1.047 -0.454,1.156 -0.657,1.156 -0.593,0 -0.656,-0.812 -0.656,-0.891 v -3.609 c 0,-0.75 0,-1.453 -0.656,-2.125 -0.703,-0.703 -1.594,-0.984 -2.469,-0.984 -1.469,0 -2.719,0.843 -2.719,2.031 0,0.547 0.36,0.844 0.828,0.844 0.516,0 0.829,-0.36 0.829,-0.828 0,-0.219 -0.094,-0.813 -0.907,-0.829 0.485,-0.625 1.36,-0.828 1.938,-0.828 0.875,0 1.906,0.703 1.906,2.313 v 0.656 c -0.922,0.063 -2.172,0.109 -3.312,0.656 -1.344,0.61 -1.797,1.547 -1.797,2.344 0,1.453 1.75,1.906 2.875,1.906 1.187,0 2.015,-0.718 2.359,-1.578 0.078,0.735 0.563,1.485 1.406,1.485 0.375,0 1.469,-0.25 1.469,-1.719 z m -3,-0.906 c 0,1.703 -1.297,2.312 -2.109,2.312 -0.875,0 -1.61,-0.625 -1.61,-1.531 0,-0.985 0.75,-2.485 3.719,-2.578 z"
         style="fill:#000000;fill-opacity:1;fill-rule:nonzero;stroke:none"
         id="path148"
         inkscape:connector-curvature="0" /><path
         d="m 515.227,170.895 c 0,-2.282 -1.75,-4.063 -3.766,-4.063 -1.391,0 -2.156,0.797 -2.516,1.188 v -1.188 l -2.593,0.188 v 0.562 c 1.281,0 1.406,0.109 1.406,0.906 v 8.422 c 0,0.813 -0.203,0.813 -1.406,0.813 v 0.547 l 2.015,-0.047 2.031,0.047 v -0.547 c -1.203,0 -1.39,0 -1.39,-0.813 v -3.187 c 0.078,0.281 0.844,1.265 2.203,1.265 2.141,0 4.016,-1.765 4.016,-4.093 z m -1.485,0 c 0,2.187 -1.265,3.687 -2.594,3.687 -0.718,0 -1.406,-0.359 -1.89,-1.094 -0.25,-0.375 -0.25,-0.39 -0.25,-0.75 v -4.015 c 0.515,-0.922 1.39,-1.438 2.312,-1.438 1.313,0 2.422,1.578 2.422,3.61 z"
         style="fill:#000000;fill-opacity:1;fill-rule:nonzero;stroke:none"
         id="path150"
         inkscape:connector-curvature="0" /><path
         d="m 522.355,172.488 c 0,-0.968 -0.546,-1.5 -0.765,-1.718 -0.594,-0.579 -1.297,-0.719 -2.047,-0.86 -1.016,-0.203 -2.219,-0.437 -2.219,-1.484 0,-0.625 0.469,-1.36 2.016,-1.36 1.984,0 2.078,1.61 2.109,2.172 0.016,0.172 0.219,0.172 0.219,0.172 0.234,0 0.234,-0.094 0.234,-0.437 v -1.813 c 0,-0.312 0,-0.437 -0.203,-0.437 -0.094,0 -0.125,0 -0.359,0.218 -0.047,0.063 -0.235,0.235 -0.297,0.282 -0.688,-0.5 -1.422,-0.5 -1.703,-0.5 -2.188,0 -2.875,1.203 -2.875,2.218 0,0.625 0.281,1.125 0.781,1.532 0.563,0.453 1.078,0.562 2.375,0.828 0.391,0.062 1.859,0.359 1.859,1.64 0,0.922 -0.625,1.641 -2.031,1.641 -1.515,0 -2.156,-1.016 -2.5,-2.547 -0.047,-0.234 -0.062,-0.312 -0.25,-0.312 -0.234,0 -0.234,0.125 -0.234,0.453 v 2.375 c 0,0.312 0,0.437 0.203,0.437 0.078,0 0.109,-0.015 0.437,-0.359 0.047,-0.047 0.047,-0.078 0.375,-0.422 0.782,0.766 1.594,0.781 1.969,0.781 2.078,0 2.906,-1.218 2.906,-2.5 z"
         style="fill:#000000;fill-opacity:1;fill-rule:nonzero;stroke:none"
         id="path152"
         inkscape:connector-curvature="0" /><path
         d="m 527.426,174.785 v -0.562 c -1.188,0 -1.266,-0.078 -1.266,-0.782 v -6.609 l -2.515,0.188 v 0.562 c 1.171,0 1.328,0.109 1.328,1 v 4.828 c 0,0.813 -0.203,0.813 -1.407,0.813 v 0.562 l 1.985,-0.047 c 0.625,0 1.25,0.032 1.875,0.047 z m -1,-10.875 c 0,-0.484 -0.406,-0.953 -0.953,-0.953 -0.61,0 -0.969,0.5 -0.969,0.953 0,0.485 0.406,0.953 0.953,0.953 0.609,0 0.969,-0.5 0.969,-0.953 z"
         style="fill:#000000;fill-opacity:1;fill-rule:nonzero;stroke:none"
         id="path154"
         inkscape:connector-curvature="0" /><path
         d="m 534.449,172.488 c 0,-0.968 -0.547,-1.5 -0.765,-1.718 -0.594,-0.579 -1.297,-0.719 -2.047,-0.86 -1.016,-0.203 -2.219,-0.437 -2.219,-1.484 0,-0.625 0.469,-1.36 2.016,-1.36 1.984,0 2.078,1.61 2.109,2.172 0.016,0.172 0.219,0.172 0.219,0.172 0.234,0 0.234,-0.094 0.234,-0.437 v -1.813 c 0,-0.312 0,-0.437 -0.203,-0.437 -0.094,0 -0.125,0 -0.359,0.218 -0.047,0.063 -0.235,0.235 -0.297,0.282 -0.688,-0.5 -1.422,-0.5 -1.703,-0.5 -2.188,0 -2.875,1.203 -2.875,2.218 0,0.625 0.281,1.125 0.781,1.532 0.562,0.453 1.078,0.562 2.375,0.828 0.39,0.062 1.859,0.359 1.859,1.64 0,0.922 -0.625,1.641 -2.031,1.641 -1.516,0 -2.156,-1.016 -2.5,-2.547 -0.047,-0.234 -0.063,-0.312 -0.25,-0.312 -0.234,0 -0.234,0.125 -0.234,0.453 v 2.375 c 0,0.312 0,0.437 0.203,0.437 0.078,0 0.109,-0.015 0.437,-0.359 0.047,-0.047 0.047,-0.078 0.375,-0.422 0.781,0.766 1.594,0.781 1.969,0.781 2.078,0 2.906,-1.218 2.906,-2.5 z"
         style="fill:#000000;fill-opacity:1;fill-rule:nonzero;stroke:none"
         id="path156"
         inkscape:connector-curvature="0" /><path
         d="m 345,282.973 c 0.016,-0.782 0,-1.672 -0.188,-2.407 -0.109,-0.453 -0.312,-0.859 -0.624,-1.093 -0.141,-0.11 -0.297,-0.157 -0.454,-0.157 -0.218,0 -0.437,0.11 -0.562,0.282 -0.125,0.187 -0.156,0.375 -0.11,0.578 0.047,0.187 0.157,0.328 0.313,0.453 0.531,0.391 0.922,0.953 1.078,1.578 0.047,0.219 0.094,0.453 0.094,0.672 0,1.641 -0.641,3.297 -2.063,3.297 -1,0 -1.781,-0.688 -2.172,-1.625 0.11,-0.5 0.157,-1.047 0.141,-1.578 0,-0.172 0,-0.328 -0.031,-0.469 -0.078,-0.281 -0.219,-0.469 -0.469,-0.469 -0.344,0 -0.391,0.453 -0.391,0.844 0,0.562 0.047,1.094 0.172,1.625 -0.359,0.969 -1.046,1.672 -2.031,1.672 -1.094,0 -1.797,-0.906 -2.062,-2.031 -0.094,-0.36 -0.157,-0.782 -0.172,-1.172 0,-1.078 0.406,-2.094 0.843,-3.047 0.047,-0.078 0.063,-0.156 0.047,-0.235 -0.047,-0.109 -0.125,-0.203 -0.234,-0.25 -0.063,-0.031 -0.109,-0.031 -0.172,-0.031 -0.109,0 -0.219,0.047 -0.281,0.156 -0.484,1.032 -0.656,2.172 -0.656,3.313 0,0.687 0.078,1.391 0.234,2.016 0.359,1.453 1.172,2.578 2.547,2.578 1.125,0 1.875,-0.797 2.265,-1.907 0.485,1.11 1.313,1.907 2.516,1.907 1.875,0 2.438,-2.328 2.422,-4.5 z"
         style="fill:#000000;fill-opacity:1;fill-rule:nonzero;stroke:none"
         id="path158"
         inkscape:connector-curvature="0" /><path
         d="m 369.965,373.797 c -0.262,-0.27 -0.586,-0.406 -0.969,-0.406 -0.387,0 -0.715,0.136 -0.984,0.406 -0.274,0.273 -0.407,0.601 -0.407,0.984 0,0.375 0.133,0.699 0.407,0.969 0.269,0.273 0.597,0.406 0.984,0.406 0.375,0 0.695,-0.133 0.969,-0.406 0.269,-0.27 0.406,-0.594 0.406,-0.969 0,-0.383 -0.137,-0.711 -0.406,-0.984 z m -8.375,-0.406 c -0.375,0 -0.699,0.136 -0.969,0.406 -0.273,0.273 -0.406,0.601 -0.406,0.984 0,0.375 0.133,0.699 0.406,0.969 0.27,0.273 0.594,0.406 0.969,0.406 0.383,0 0.711,-0.133 0.984,-0.406 0.27,-0.27 0.406,-0.594 0.406,-0.969 0,-0.383 -0.136,-0.711 -0.406,-0.984 -0.273,-0.27 -0.601,-0.406 -0.984,-0.406 z m 8.765,-0.657 c 0.125,0.086 0.243,0.184 0.36,0.297 0.476,0.481 0.719,1.059 0.719,1.735 0,0.679 -0.243,1.257 -0.719,1.734 -0.469,0.469 -1.043,0.703 -1.719,0.703 -0.68,0 -1.258,-0.234 -1.734,-0.703 -0.469,-0.477 -0.703,-1.055 -0.703,-1.734 0,-0.676 0.234,-1.254 0.703,-1.735 0.426,-0.414 0.926,-0.648 1.5,-0.703 0.633,-0.594 0.953,-1.289 0.953,-2.094 0,-0.937 -0.438,-1.734 -1.313,-2.39 -0.875,-0.656 -1.937,-0.985 -3.187,-0.985 -1.25,0 -2.313,0.329 -3.188,0.985 -0.867,0.656 -1.297,1.453 -1.297,2.39 0,0.805 0.313,1.5 0.938,2.094 0.656,0.024 1.207,0.258 1.656,0.703 0.469,0.481 0.703,1.059 0.703,1.735 0,0.679 -0.242,1.257 -0.718,1.734 -0.469,0.48 -1.043,0.719 -1.719,0.719 -0.668,0 -1.242,-0.239 -1.719,-0.719 -0.469,-0.477 -0.703,-1.055 -0.703,-1.734 0,-0.676 0.234,-1.254 0.703,-1.735 0.094,-0.082 0.191,-0.164 0.297,-0.25 -0.637,-0.738 -0.953,-1.582 -0.953,-2.531 0,-1.289 0.582,-2.391 1.75,-3.297 1.164,-0.914 2.582,-1.375 4.25,-1.375 1.687,0 3.113,0.461 4.281,1.375 1.164,0.906 1.75,2.008 1.75,3.297 0,0.93 -0.297,1.758 -0.891,2.484 z"
         style="fill:#000000;fill-opacity:1;fill-rule:nonzero;stroke:none"
         id="path160"
         inkscape:connector-curvature="0" /><path
         d="m 112.906,463.5 c -2.117,-2.301 -4.125,-3.941 -6.031,-4.922 -1.914,-0.976 -3.195,-1.172 -3.844,-0.578 -0.5,0.461 -0.601,0.906 -0.312,1.344 0.281,0.437 0.484,0.718 0.609,0.844 0.449,0.5 1.059,0.851 1.828,1.046 l -0.781,0.704 c -0.801,-0.188 -1.488,-0.594 -2.063,-1.219 -0.468,-0.5 -0.71,-1.071 -0.734,-1.719 -0.019,-0.645 0.25,-1.223 0.813,-1.734 1.429,-1.313 3.757,-0.711 6.984,1.796 0.207,0.157 0.391,0.309 0.547,0.454 -0.125,-0.176 -0.266,-0.375 -0.422,-0.594 -2.207,-3.426 -2.598,-5.797 -1.172,-7.11 0.563,-0.507 1.16,-0.726 1.797,-0.656 0.645,0.074 1.203,0.36 1.672,0.86 0.57,0.625 0.91,1.355 1.015,2.187 l -0.781,0.703 c -0.125,-0.781 -0.418,-1.422 -0.875,-1.922 -0.117,-0.132 -0.383,-0.359 -0.797,-0.672 -0.406,-0.32 -0.859,-0.253 -1.359,0.204 -0.648,0.593 -0.562,1.886 0.25,3.875 0.82,1.992 2.289,4.136 4.406,6.437 z"
         style="fill:#000000;fill-opacity:1;fill-rule:nonzero;stroke:none"
         id="path162"
         inkscape:connector-curvature="0" /><path
         d="m 328.504,223.75 c -0.063,-0.312 -0.328,-0.484 -0.625,-0.484 -0.141,0 -0.547,0.062 -0.563,0.593 -0.125,4.079 -2.359,6.094 -4.25,6.766 l -0.031,-7.172 c 0,0 -0.031,-0.187 -0.265,-0.187 -0.422,0 -1.704,0.14 -2.172,0.172 -0.141,0.015 -0.313,0.046 -0.25,0.359 0.062,0.219 0.218,0.219 0.484,0.219 0.875,0 0.938,0.125 0.984,0.312 0.032,0.125 0.032,0.969 0.032,1.453 V 231 c 0.047,0.203 0.234,0.219 0.343,0.219 h 0.25 c 1.204,-0.219 2.985,-0.922 4.407,-2.641 1.843,-2.219 1.718,-4.672 1.656,-4.828 z"
         style="fill:#000000;fill-opacity:1;fill-rule:nonzero;stroke:none"
         id="path164"
         inkscape:connector-curvature="0" /><path
         d="m 374.613,399.051 v -0.563 h -0.328 c -1.078,0 -1.328,-0.125 -1.531,-0.718 l -3.891,-11.25 c -0.078,-0.235 -0.125,-0.36 -0.406,-0.36 -0.281,0 -0.344,0.11 -0.437,0.36 l -3.719,10.765 c -0.328,0.922 -1.047,1.188 -2.016,1.203 v 0.563 l 1.828,-0.047 2.078,0.047 v -0.563 c -0.906,0 -1.359,-0.453 -1.359,-0.906 0,-0.062 0.031,-0.234 0.047,-0.281 l 0.828,-2.36 h 4.438 l 0.953,2.766 c 0.015,0.063 0.062,0.172 0.062,0.25 0,0.531 -1.015,0.531 -1.5,0.531 v 0.563 c 0.656,-0.047 1.906,-0.047 2.594,-0.047 z m -4.656,-4.656 h -4.062 l 2.015,-5.86 z"
         style="fill:#000000;fill-opacity:1;fill-rule:nonzero;stroke:none"
         id="path166"
         inkscape:connector-curvature="0" /><path
         d="m 381.691,396.754 c 0,-0.969 -0.546,-1.5 -0.765,-1.719 -0.594,-0.578 -1.297,-0.719 -2.047,-0.859 -1.016,-0.203 -2.219,-0.438 -2.219,-1.485 0,-0.625 0.469,-1.359 2.016,-1.359 1.984,0 2.078,1.609 2.109,2.172 0.016,0.172 0.219,0.172 0.219,0.172 0.234,0 0.234,-0.094 0.234,-0.438 v -1.812 c 0,-0.313 0,-0.438 -0.203,-0.438 -0.094,0 -0.125,0 -0.359,0.219 -0.047,0.063 -0.235,0.234 -0.297,0.281 -0.688,-0.5 -1.422,-0.5 -1.703,-0.5 -2.188,0 -2.875,1.203 -2.875,2.219 0,0.625 0.281,1.125 0.781,1.531 0.563,0.453 1.078,0.563 2.375,0.828 0.391,0.063 1.859,0.36 1.859,1.641 0,0.922 -0.625,1.641 -2.031,1.641 -1.515,0 -2.156,-1.016 -2.5,-2.547 -0.047,-0.235 -0.062,-0.313 -0.25,-0.313 -0.234,0 -0.234,0.125 -0.234,0.453 v 2.375 c 0,0.313 0,0.438 0.203,0.438 0.078,0 0.109,-0.016 0.437,-0.359 0.047,-0.047 0.047,-0.079 0.375,-0.422 0.782,0.765 1.594,0.781 1.969,0.781 2.078,0 2.906,-1.219 2.906,-2.5 z"
         style="fill:#000000;fill-opacity:1;fill-rule:nonzero;stroke:none"
         id="path168"
         inkscape:connector-curvature="0" /><path
         d="m 389.777,396.91 c 0,-0.187 -0.172,-0.187 -0.234,-0.187 -0.156,0 -0.203,0.078 -0.234,0.187 -0.516,1.672 -1.688,1.891 -2.36,1.891 -0.953,0 -2.531,-0.781 -2.531,-3.672 0,-2.938 1.469,-3.688 2.422,-3.688 0.172,0 1.297,0.016 1.937,0.657 -0.75,0.062 -0.859,0.593 -0.859,0.828 0,0.469 0.328,0.828 0.828,0.828 0.469,0 0.828,-0.297 0.828,-0.844 0,-1.219 -1.359,-1.922 -2.75,-1.922 -2.25,0 -3.906,1.938 -3.906,4.172 0,2.313 1.781,4.094 3.875,4.094 2.406,0 2.984,-2.172 2.984,-2.344 z"
         style="fill:#000000;fill-opacity:1;fill-rule:nonzero;stroke:none"
         id="path170"
         inkscape:connector-curvature="0" /><path
         d="m 397.758,396.91 c 0,-0.187 -0.141,-0.219 -0.235,-0.219 -0.156,0 -0.203,0.11 -0.234,0.25 -0.625,1.86 -2.25,1.86 -2.422,1.86 -0.906,0 -1.625,-0.547 -2.047,-1.203 -0.531,-0.875 -0.531,-2.063 -0.531,-2.703 h 5.016 c 0.406,0 0.453,0 0.453,-0.375 0,-1.782 -0.969,-3.532 -3.219,-3.532 -2.094,0 -3.75,1.86 -3.75,4.11 0,2.406 1.891,4.156 3.969,4.156 2.187,0 3,-2 3,-2.344 z m -1.188,-2.39 h -4.265 c 0.109,-2.688 1.625,-3.141 2.234,-3.141 1.859,0 2.031,2.437 2.031,3.141 z"
         style="fill:#000000;fill-opacity:1;fill-rule:nonzero;stroke:none"
         id="path172"
         inkscape:connector-curvature="0" /><path
         d="m 407.895,399.051 v -0.563 c -0.938,0 -1.375,0 -1.407,-0.531 v -3.437 c 0,-1.547 0,-2.11 -0.547,-2.766 -0.25,-0.297 -0.843,-0.656 -1.89,-0.656 -1.313,0 -2.156,0.765 -2.672,1.89 v -1.89 l -2.531,0.187 v 0.563 c 1.265,0 1.406,0.125 1.406,1.015 v 4.813 c 0,0.812 -0.203,0.812 -1.406,0.812 v 0.563 l 2.031,-0.047 2.016,0.047 v -0.563 c -1.204,0 -1.407,0 -1.407,-0.812 v -3.313 c 0,-1.859 1.282,-2.875 2.438,-2.875 1.125,0 1.328,0.969 1.328,2 v 4.188 c 0,0.812 -0.203,0.812 -1.406,0.812 v 0.563 l 2.031,-0.047 z"
         style="fill:#000000;fill-opacity:1;fill-rule:nonzero;stroke:none"
         id="path174"
         inkscape:connector-curvature="0" /><path
         d="m 417.773,399.051 v -0.563 c -1.265,0 -1.406,-0.125 -1.406,-1 v -10.922 l -2.594,0.188 v 0.562 c 1.266,0 1.407,0.125 1.407,1 v 3.891 c -0.516,-0.641 -1.297,-1.109 -2.266,-1.109 -2.125,0 -4.016,1.765 -4.016,4.078 0,2.297 1.766,4.078 3.813,4.078 1.156,0 1.969,-0.609 2.422,-1.188 v 1.188 z m -2.64,-2.125 c 0,0.328 0,0.359 -0.203,0.672 -0.532,0.859 -1.344,1.25 -2.125,1.25 -0.813,0 -1.453,-0.469 -1.891,-1.141 -0.469,-0.75 -0.516,-1.766 -0.516,-2.516 0,-0.656 0.032,-1.734 0.547,-2.546 0.391,-0.563 1.063,-1.157 2.047,-1.157 0.625,0 1.375,0.266 1.938,1.078 0.203,0.313 0.203,0.344 0.203,0.672 z"
         style="fill:#000000;fill-opacity:1;fill-rule:nonzero;stroke:none"
         id="path176"
         inkscape:connector-curvature="0" /><path
         d="m 422.762,399.051 v -0.563 c -1.188,0 -1.266,-0.078 -1.266,-0.781 v -6.609 l -2.516,0.187 v 0.563 c 1.172,0 1.329,0.109 1.329,1 v 4.828 c 0,0.812 -0.204,0.812 -1.407,0.812 v 0.563 l 1.985,-0.047 c 0.625,0 1.25,0.031 1.875,0.047 z m -1,-10.875 c 0,-0.485 -0.407,-0.953 -0.953,-0.953 -0.61,0 -0.969,0.5 -0.969,0.953 0,0.484 0.406,0.953 0.953,0.953 0.609,0 0.969,-0.5 0.969,-0.953 z"
         style="fill:#000000;fill-opacity:1;fill-rule:nonzero;stroke:none"
         id="path178"
         inkscape:connector-curvature="0" /><path
         d="m 432.926,399.051 v -0.563 c -0.938,0 -1.375,0 -1.406,-0.531 v -3.437 c 0,-1.547 0,-2.11 -0.547,-2.766 -0.25,-0.297 -0.844,-0.656 -1.891,-0.656 -1.312,0 -2.156,0.765 -2.672,1.89 v -1.89 l -2.531,0.187 v 0.563 c 1.266,0 1.406,0.125 1.406,1.015 v 4.813 c 0,0.812 -0.203,0.812 -1.406,0.812 v 0.563 l 2.031,-0.047 2.016,0.047 v -0.563 c -1.203,0 -1.406,0 -1.406,-0.812 v -3.313 c 0,-1.859 1.281,-2.875 2.437,-2.875 1.125,0 1.328,0.969 1.328,2 v 4.188 c 0,0.812 -0.203,0.812 -1.406,0.812 v 0.563 l 2.031,-0.047 z"
         style="fill:#000000;fill-opacity:1;fill-rule:nonzero;stroke:none"
         id="path180"
         inkscape:connector-curvature="0" /><path
         d="m 442.055,391.785 c 0,-0.312 -0.219,-0.89 -0.922,-0.89 -0.36,0 -1.156,0.109 -1.906,0.843 -0.766,-0.593 -1.516,-0.64 -1.907,-0.64 -1.672,0 -2.922,1.234 -2.922,2.625 0,0.797 0.391,1.468 0.844,1.859 -0.234,0.266 -0.547,0.859 -0.547,1.484 0,0.563 0.235,1.25 0.782,1.61 -1.079,0.297 -1.657,1.078 -1.657,1.797 0,1.297 1.782,2.281 3.985,2.281 2.125,0 4,-0.906 4,-2.313 0,-0.64 -0.266,-1.546 -1.172,-2.062 -0.953,-0.5 -2,-0.5 -3.094,-0.5 -0.453,0 -1.234,0 -1.359,-0.016 -0.578,-0.078 -0.953,-0.625 -0.953,-1.203 0,-0.078 0,-0.484 0.312,-0.844 0.703,0.5 1.438,0.547 1.781,0.547 1.672,0 2.907,-1.234 2.907,-2.625 0,-0.656 -0.282,-1.328 -0.735,-1.75 0.656,-0.609 1.297,-0.703 1.625,-0.703 0,0 0.125,0 0.172,0.031 -0.187,0.063 -0.281,0.266 -0.281,0.485 0,0.297 0.234,0.515 0.515,0.515 0.188,0 0.532,-0.125 0.532,-0.531 z m -3.172,1.938 c 0,0.484 -0.016,1.062 -0.281,1.515 -0.157,0.219 -0.563,0.719 -1.282,0.719 -1.562,0 -1.562,-1.797 -1.562,-2.219 0,-0.484 0.015,-1.062 0.281,-1.515 0.141,-0.203 0.563,-0.719 1.281,-0.719 1.563,0 1.563,1.812 1.563,2.219 z m 1.984,6.75 c 0,0.968 -1.281,1.875 -3.047,1.875 -1.812,0 -3.062,-0.922 -3.062,-1.875 0,-0.828 0.687,-1.5 1.484,-1.547 h 1.063 c 1.547,0 3.562,0 3.562,1.547 z"
         style="fill:#000000;fill-opacity:1;fill-rule:nonzero;stroke:none"
         id="path182"
         inkscape:connector-curvature="0" /><path
         d="m 371.422,414.902 v -0.562 c -0.938,0 -1.375,0 -1.406,-0.531 v -3.438 c 0,-1.547 0,-2.109 -0.547,-2.766 -0.25,-0.296 -0.844,-0.656 -1.891,-0.656 -1.312,0 -2.156,0.766 -2.672,1.891 v -1.891 l -2.531,0.188 v 0.562 c 1.266,0 1.406,0.125 1.406,1.016 v 4.812 c 0,0.813 -0.203,0.813 -1.406,0.813 v 0.562 l 2.031,-0.047 2.016,0.047 v -0.562 c -1.203,0 -1.406,0 -1.406,-0.813 v -3.312 c 0,-1.86 1.281,-2.875 2.437,-2.875 1.125,0 1.328,0.969 1.328,2 v 4.187 c 0,0.813 -0.203,0.813 -1.406,0.813 v 0.562 l 2.031,-0.047 z"
         style="fill:#000000;fill-opacity:1;fill-rule:nonzero;stroke:none"
         id="path184"
         inkscape:connector-curvature="0" /><path
         d="m 380.301,411.043 c 0,-2.297 -1.813,-4.203 -3.985,-4.203 -2.25,0 -4,1.953 -4,4.203 0,2.328 1.875,4.062 3.985,4.062 2.172,0 4,-1.765 4,-4.062 z m -1.5,-0.141 c 0,0.657 0,1.625 -0.391,2.422 -0.406,0.797 -1.187,1.328 -2.094,1.328 -0.781,0 -1.562,-0.375 -2.046,-1.203 -0.454,-0.797 -0.454,-1.89 -0.454,-2.547 0,-0.703 0,-1.672 0.438,-2.468 0.484,-0.829 1.328,-1.204 2.047,-1.204 0.797,0 1.562,0.407 2.031,1.172 0.469,0.782 0.469,1.813 0.469,2.5 z"
         style="fill:#000000;fill-opacity:1;fill-rule:nonzero;stroke:none"
         id="path186"
         inkscape:connector-curvature="0" /><path
         d="m 390.793,414.902 v -0.562 c -1.266,0 -1.406,-0.125 -1.406,-1 v -10.922 l -2.594,0.187 v 0.563 c 1.266,0 1.406,0.125 1.406,1 v 3.891 c -0.515,-0.641 -1.297,-1.11 -2.265,-1.11 -2.125,0 -4.016,1.766 -4.016,4.078 0,2.297 1.766,4.078 3.812,4.078 1.157,0 1.969,-0.609 2.422,-1.187 v 1.187 z m -2.641,-2.125 c 0,0.328 0,0.36 -0.203,0.672 -0.531,0.86 -1.344,1.25 -2.125,1.25 -0.812,0 -1.453,-0.469 -1.89,-1.14 -0.469,-0.75 -0.516,-1.766 -0.516,-2.516 0,-0.656 0.031,-1.734 0.547,-2.547 0.39,-0.562 1.062,-1.156 2.047,-1.156 0.625,0 1.375,0.265 1.937,1.078 0.203,0.312 0.203,0.344 0.203,0.672 z"
         style="fill:#000000;fill-opacity:1;fill-rule:nonzero;stroke:none"
         id="path188"
         inkscape:connector-curvature="0" /><path
         d="m 398.797,412.762 c 0,-0.188 -0.141,-0.219 -0.235,-0.219 -0.156,0 -0.203,0.109 -0.234,0.25 -0.625,1.859 -2.25,1.859 -2.422,1.859 -0.906,0 -1.625,-0.547 -2.047,-1.203 -0.531,-0.875 -0.531,-2.062 -0.531,-2.703 h 5.016 c 0.406,0 0.453,0 0.453,-0.375 0,-1.781 -0.969,-3.531 -3.219,-3.531 -2.094,0 -3.75,1.859 -3.75,4.109 0,2.406 1.891,4.156 3.969,4.156 2.187,0 3,-2 3,-2.343 z m -1.188,-2.391 h -4.265 c 0.109,-2.687 1.625,-3.141 2.234,-3.141 1.86,0 2.031,2.438 2.031,3.141 z"
         style="fill:#000000;fill-opacity:1;fill-rule:nonzero;stroke:none"
         id="path190"
         inkscape:connector-curvature="0" /><path
         d="m 378.527,126.23 c 0,-1.562 -1.578,-2.968 -3.781,-2.968 h -5.641 v 0.484 h 0.375 c 1.235,0 1.266,0.188 1.266,0.75 v 8.438 c 0,0.578 -0.031,0.75 -1.266,0.75 h -0.375 v 0.5 c 0.563,-0.047 1.735,-0.047 2.344,-0.047 0.61,0 1.813,0 2.375,0.047 v -0.5 h -0.39 c -1.235,0 -1.266,-0.172 -1.266,-0.75 v -3.813 h 2.719 c 1.906,0 3.64,-1.297 3.64,-2.891 z m -1.64,0 c 0,0.75 0,2.485 -2.547,2.485 h -2.219 v -4.328 c 0,-0.516 0.031,-0.641 0.797,-0.641 h 1.422 c 2.547,0 2.547,1.703 2.547,2.484 z"
         style="fill:#000000;fill-opacity:1;fill-rule:nonzero;stroke:none"
         id="path192"
         inkscape:connector-curvature="0" /><g
         id="g194"><path
           d="m 359.742,128.824 c -20.285,1.321 -40.566,5.442 -60.851,11.864"
           style="fill:none;stroke:#000000;stroke-width:0.75;stroke-linecap:butt;stroke-linejoin:miter;stroke-miterlimit:4;stroke-dasharray:none;stroke-opacity:1"
           id="path196"
           inkscape:connector-curvature="0" /></g><g
         id="g198"
         transform="matrix(1,-0.316576,0.316576,1,0,0)"><path
           d="m 234.043,213.874 1.429,-1.431 -5.004,1.432 5.005,1.428 z"
           style="fill:#000000;fill-opacity:1;fill-rule:evenodd;stroke:#000000;stroke-width:0.381347;stroke-linecap:butt;stroke-linejoin:miter;stroke-miterlimit:4;stroke-dasharray:none;stroke-opacity:1"
           id="path200"
           inkscape:connector-curvature="0" /></g></g></g></svg>